<svg width="474" height="474" viewBox="0 0 474 474" fill="none" xmlns="http://www.w3.org/2000/svg">
<path d="M67.782 406.286L50.718 372.429H84.609L67.782 406.286Z" fill="white"/>
<path d="M101.436 338.571L84.609 372.429L67.782 338.571H101.436Z" fill="white"/>
<path d="M50.718 372.429L67.782 338.571L84.609 372.429H50.718Z" fill="white"/>
<path d="M101.436 338.571H67.782L84.609 304.714L101.436 338.571Z" fill="white"/>
<path d="M237 67.7143L220.173 101.571L203.346 67.7143H237Z" fill="white"/>
<path d="M270.654 67.7143L253.827 101.571L237 67.7143H270.654Z" fill="white"/>
<path d="M253.827 101.571L270.654 67.7143L287.718 101.571H253.827Z" fill="white"/>
<path d="M270.654 135.429L253.827 101.571H287.718L270.654 135.429Z" fill="white"/>
<path d="M304.782 135.429H270.654L287.718 101.571L304.782 135.429Z" fill="white"/>
<path d="M287.718 169.286L304.782 135.429L321.609 169.286H287.718Z" fill="white"/>
<path d="M338.436 203.143H304.782L321.609 169.286L338.436 203.143Z" fill="white"/>
<path d="M372.564 270.857H338.436L355.5 237L372.564 270.857Z" fill="white"/>
<path d="M355.5 304.714L372.564 270.857L389.391 304.714H355.5Z" fill="white"/>
<path d="M406.218 338.571H372.564L389.391 304.714L406.218 338.571Z" fill="white"/>
<path d="M406.218 474L389.391 440.143H423.282L406.218 474Z" fill="white"/>
<path d="M321.609 440.143L338.436 474H304.782L321.609 440.143Z" fill="white"/>
<path d="M304.782 474L287.718 440.143H321.609L304.782 474Z" fill="white"/>
<path d="M287.718 440.143L304.782 474H270.654L287.718 440.143Z" fill="white"/>
<path d="M118.5 440.143L135.564 474H101.436L118.5 440.143Z" fill="white"/>
<path d="M101.436 474L84.609 440.143H118.5L101.436 474Z" fill="white"/>
<path d="M84.609 440.143L101.436 474H67.782L84.609 440.143Z" fill="white"/>
<path d="M169.218 203.143L152.391 237L135.564 203.143H169.218Z" fill="white"/>
<path d="M101.436 338.571L84.609 304.714H118.5L101.436 338.571Z" fill="white"/>
<path d="M84.609 304.714L101.436 270.857L118.5 304.714H84.609Z" fill="white"/>
<path d="M135.564 474L118.5 440.143H152.391L135.564 474Z" fill="white"/>
<path d="M152.391 440.143L169.218 474H135.564L152.391 440.143Z" fill="white"/>
<path d="M169.218 203.143L152.391 169.286H186.282L169.218 203.143Z" fill="white"/>
<path d="M152.391 169.286L169.218 135.429L186.282 169.286H152.391Z" fill="white"/>
<path d="M304.782 135.429L287.718 169.286L270.654 135.429H304.782Z" fill="white"/>
<path d="M304.782 203.143L287.718 169.286H321.609L304.782 203.143Z" fill="white"/>
<path d="M270.654 474L253.827 440.143H287.718L270.654 474Z" fill="white"/>
<path d="M372.564 338.571L355.5 304.714H389.391L372.564 338.571Z" fill="white"/>
<path d="M372.564 270.857L355.5 304.714L338.436 270.857H372.564Z" fill="white"/>
<path d="M321.609 237L338.436 203.143L355.5 237H321.609Z" fill="white"/>
<path d="M338.436 270.857L321.609 237H355.5L338.436 270.857Z" fill="white"/>
<path d="M338.436 203.143L321.609 237L304.782 203.143H338.436Z" fill="white"/>
<path d="M169.218 474L152.391 440.143H186.282L169.218 474Z" fill="white"/>
<path d="M186.282 440.143L203.346 474H169.218L186.282 440.143Z" fill="white"/>
<path d="M338.436 474L321.609 440.143H355.5L338.436 474Z" fill="white"/>
<path d="M372.564 474L355.5 440.143H389.391L372.564 474Z" fill="white"/>
<path d="M355.5 440.143L372.564 474H338.436L355.5 440.143Z" fill="white"/>
<path d="M389.391 440.143L406.218 474H372.564L389.391 440.143Z" fill="white"/>
<path d="M135.564 270.857L118.5 304.714L101.436 270.857H135.564Z" fill="white"/>
<path d="M135.564 270.857H101.436L118.5 237L135.564 270.857Z" fill="white"/>
<path d="M135.564 270.857L118.5 237H152.391L135.564 270.857Z" fill="white"/>
<path d="M118.5 237L135.564 203.143L152.391 237H118.5Z" fill="white"/>
<path d="M203.346 135.429L186.282 169.286L169.218 135.429H203.346Z" fill="white"/>
<path d="M203.346 135.429H169.218L186.282 101.571L203.346 135.429Z" fill="white"/>
<path d="M203.346 135.429L186.282 101.571H220.173L203.346 135.429Z" fill="white"/>
<path d="M186.282 101.571L203.346 67.7143L220.173 101.571H186.282Z" fill="white"/>
<path d="M406.218 338.571L389.391 372.429L372.564 338.571H406.218Z" fill="white"/>
<path d="M389.391 372.429L406.218 338.571L423.282 372.429H389.391Z" fill="white"/>
<path d="M203.346 474L186.282 440.143H220.173L203.346 474Z" fill="white"/>
<path d="M220.173 440.143L237 474H203.346L220.173 440.143Z" fill="white"/>
<path d="M237 474L220.173 440.143H253.827L237 474Z" fill="white"/>
<path d="M253.827 440.143L270.654 474H237L253.827 440.143Z" fill="white"/>
<path d="M67.782 406.286H33.654L50.718 372.429L67.782 406.286Z" fill="white"/>
<path d="M440.346 406.286L423.282 440.143L406.218 406.286H440.346Z" fill="white"/>
<path d="M440.346 406.286H406.218L423.282 372.429L440.346 406.286Z" fill="white"/>
<path d="M406.218 406.286L389.391 372.429H423.282L406.218 406.286Z" fill="white"/>
<path d="M406.218 406.286H372.564L389.391 372.429L406.218 406.286Z" fill="white"/>
<path d="M372.564 406.286L355.5 372.429H389.391L372.564 406.286Z" fill="white"/>
<path d="M389.391 440.143L406.218 406.286L423.282 440.143H389.391Z" fill="white"/>
<path d="M406.218 406.286L389.391 440.143L372.564 406.286H406.218Z" fill="white"/>
<path d="M355.5 440.143L372.564 406.286L389.391 440.143H355.5Z" fill="white"/>
<path d="M372.564 406.286L355.5 440.143L338.436 406.286H372.564Z" fill="white"/>
<path d="M287.718 440.143L304.782 406.286L321.609 440.143H287.718Z" fill="white"/>
<path d="M338.436 406.286L321.609 440.143L304.782 406.286H338.436Z" fill="white"/>
<path d="M321.609 440.143L338.436 406.286L355.5 440.143H321.609Z" fill="white"/>
<path d="M355.5 372.429L372.564 338.571L389.391 372.429H355.5Z" fill="white"/>
<path d="M372.564 338.571L355.5 372.429L338.436 338.571H372.564Z" fill="white"/>
<path d="M372.564 338.571H338.436L355.5 304.714L372.564 338.571Z" fill="white"/>
<path d="M338.436 338.571L321.609 304.714H355.5L338.436 338.571Z" fill="white"/>
<path d="M321.609 304.714L338.436 270.857L355.5 304.714H321.609Z" fill="white"/>
<path d="M338.436 270.857L321.609 304.714L304.782 270.857H338.436Z" fill="white"/>
<path d="M338.436 270.857H304.782L321.609 237L338.436 270.857Z" fill="white"/>
<path d="M304.782 270.857L287.718 237H321.609L304.782 270.857Z" fill="white"/>
<path d="M287.718 237L304.782 203.143L321.609 237H287.718Z" fill="white"/>
<path d="M304.782 203.143L287.718 237L270.654 203.143H304.782Z" fill="white"/>
<path d="M304.782 203.143H270.654L287.718 169.286L304.782 203.143Z" fill="white"/>
<path d="M270.654 203.143L253.827 169.286H287.718L270.654 203.143Z" fill="white"/>
<path d="M253.827 169.286L270.654 135.429L287.718 169.286H253.827Z" fill="white"/>
<path d="M270.654 135.429H237L253.827 101.571L270.654 135.429Z" fill="white"/>
<path d="M270.654 135.429L253.827 169.286L237 135.429H270.654Z" fill="white"/>
<path d="M237 135.429L220.173 101.571H253.827L237 135.429Z" fill="white"/>
<path d="M220.173 101.571L237 67.7143L253.827 101.571H220.173Z" fill="white"/>
<path d="M237 135.429H203.346L220.173 101.571L237 135.429Z" fill="white"/>
<path d="M186.282 169.286L203.346 135.429L220.173 169.286H186.282Z" fill="white"/>
<path d="M203.346 203.143L186.282 169.286H220.173L203.346 203.143Z" fill="white"/>
<path d="M237 135.429L220.173 169.286L203.346 135.429H237Z" fill="white"/>
<path d="M203.346 203.143H169.218L186.282 169.286L203.346 203.143Z" fill="white"/>
<path d="M203.346 203.143L186.282 237L169.218 203.143H203.346Z" fill="white"/>
<path d="M152.391 237L169.218 203.143L186.282 237H152.391Z" fill="white"/>
<path d="M169.218 270.857L152.391 237H186.282L169.218 270.857Z" fill="white"/>
<path d="M169.218 270.857H135.564L152.391 237L169.218 270.857Z" fill="white"/>
<path d="M169.218 270.857L152.391 304.714L135.564 270.857H169.218Z" fill="white"/>
<path d="M118.5 304.714L135.564 270.857L152.391 304.714H118.5Z" fill="white"/>
<path d="M135.564 338.571L118.5 304.714H152.391L135.564 338.571Z" fill="white"/>
<path d="M135.564 338.571H101.436L118.5 304.714L135.564 338.571Z" fill="white"/>
<path d="M135.564 338.571L118.5 372.429L101.436 338.571H135.564Z" fill="white"/>
<path d="M84.609 372.429L101.436 338.571L118.5 372.429H84.609Z" fill="white"/>
<path d="M101.436 406.286L84.609 372.429H118.5L101.436 406.286Z" fill="white"/>
<path d="M101.436 406.286H67.782L84.609 372.429L101.436 406.286Z" fill="white"/>
<path d="M101.436 406.286L84.609 440.143L67.782 406.286H101.436Z" fill="white"/>
<path d="M84.609 440.143L101.436 406.286L118.5 440.143H84.609Z" fill="white"/>
<path d="M135.564 406.286L118.5 440.143L101.436 406.286H135.564Z" fill="white"/>
<path d="M118.5 440.143L135.564 406.286L152.391 440.143H118.5Z" fill="white"/>
<path d="M169.218 406.286L152.391 440.143L135.564 406.286H169.218Z" fill="white"/>
<path d="M152.391 440.143L169.218 406.286L186.282 440.143H152.391Z" fill="white"/>
<path d="M203.346 406.286L186.282 440.143L169.218 406.286H203.346Z" fill="white"/>
<path d="M186.282 440.143L203.346 406.286L220.173 440.143H186.282Z" fill="white"/>
<path d="M237 406.286L220.173 440.143L203.346 406.286H237Z" fill="white"/>
<path d="M220.173 440.143L237 406.286L253.827 440.143H220.173Z" fill="white"/>
<path d="M270.654 406.286L253.827 440.143L237 406.286H270.654Z" fill="white"/>
<path d="M253.827 440.143L270.654 406.286L287.718 440.143H253.827Z" fill="white"/>
<path d="M304.782 406.286L287.718 440.143L270.654 406.286H304.782Z" fill="white"/>
<path d="M169.218 203.143H135.564L152.391 169.286L169.218 203.143Z" fill="white"/>
<path d="M67.782 474L50.718 440.143H84.609L67.782 474Z" fill="white"/>
<path d="M50.718 440.143L67.782 406.286L84.609 440.143H50.718Z" fill="white"/>
<path d="M67.782 406.286L50.718 440.143L33.654 406.286H67.782Z" fill="white"/>
<path d="M237 270.857H203.346L220.173 237L237 270.857Z" fill="white"/>
<path d="M203.346 270.857L186.282 237H220.173L203.346 270.857Z" fill="white"/>
<path d="M186.282 237L203.346 203.143L220.173 237H186.282Z" fill="white"/>
<path d="M237 270.857L220.173 304.714L203.346 270.857H237Z" fill="white"/>
<path d="M220.173 304.714L237 270.857L253.827 304.714H220.173Z" fill="white"/>
<path d="M237 338.571L220.173 304.714H253.827L237 338.571Z" fill="white"/>
<path d="M270.654 338.571H237L253.827 304.714L270.654 338.571Z" fill="white"/>
<path d="M270.654 338.571L253.827 372.429L237 338.571H270.654Z" fill="white"/>
<path d="M253.827 372.429L270.654 338.571L287.718 372.429H253.827Z" fill="white"/>
<path d="M270.654 406.286L253.827 372.429H287.718L270.654 406.286Z" fill="white"/>
<path d="M304.782 406.286H270.654L287.718 372.429L304.782 406.286Z" fill="white"/>
<path d="M270.654 406.286H237L253.827 372.429L270.654 406.286Z" fill="white"/>
<path d="M237 406.286L220.173 372.429H253.827L237 406.286Z" fill="white"/>
<path d="M220.173 372.429L237 338.571L253.827 372.429H220.173Z" fill="white"/>
<path d="M237 338.571L220.173 372.429L203.346 338.571H237Z" fill="white"/>
<path d="M237 338.571H203.346L220.173 304.714L237 338.571Z" fill="white"/>
<path d="M203.346 338.571L186.282 304.714H220.173L203.346 338.571Z" fill="white"/>
<path d="M186.282 304.714L203.346 270.857L220.173 304.714H186.282Z" fill="white"/>
<path d="M203.346 270.857L186.282 304.714L169.218 270.857H203.346Z" fill="white"/>
<path d="M203.346 270.857H169.218L186.282 237L203.346 270.857Z" fill="white"/>
<path d="M16.827 440.143L33.654 406.286L50.718 440.143H16.827Z" fill="white"/>
<path d="M33.654 474L16.827 440.143H50.718L33.654 474Z" fill="white"/>
<path d="M50.718 440.143L67.782 474H33.654L50.718 440.143Z" fill="white"/>
<path d="M16.827 440.143L33.654 474H0L16.827 440.143Z" fill="white"/>
<path d="M423.282 440.143L440.346 406.286L457.173 440.143H423.282Z" fill="white"/>
<path d="M440.346 474L423.282 440.143H457.173L440.346 474Z" fill="white"/>
<path d="M423.282 440.143L440.346 474H406.218L423.282 440.143Z" fill="white"/>
<path d="M457.173 440.143L474 474H440.346L457.173 440.143Z" fill="white"/>
<path d="M220.173 33.8571L237 0L253.827 33.8571H220.173Z" fill="white"/>
<path d="M237 67.7143L220.173 33.8571H253.827L237 67.7143Z" fill="white"/>
<path d="M237 67.7143H203.346L220.173 33.8571L237 67.7143Z" fill="white"/>
<path d="M270.654 67.7143H237L253.827 33.8571L270.654 67.7143Z" fill="white"/>
</svg>
