<svg width="175" height="248" viewBox="0 0 175 248" fill="none" xmlns="http://www.w3.org/2000/svg">
<g clip-path="url(#clip0_10_449)">
<path d="M27.881 153.143L21.869 141.214H33.8095L27.881 153.143Z" fill="#DE7EFF"/>
<path d="M39.738 129.286L33.8095 141.214L27.881 129.286H39.738Z" fill="#DE7EFF"/>
<path d="M21.869 141.214L27.881 129.286L33.8095 141.214H21.869Z" fill="#DE7EFF"/>
<path d="M39.738 129.286H27.881L33.8095 117.357L39.738 129.286Z" fill="#DE7EFF"/>
<path d="M87.5 33.8571L81.5715 45.7856L75.643 33.8571H87.5Z" fill="#DE7EFF"/>
<path d="M99.357 33.8571L93.4285 45.7856L87.5 33.8571H99.357Z" fill="#DE7EFF"/>
<path d="M93.4285 45.7856L99.357 33.8571L105.369 45.7856H93.4285Z" fill="#DE7EFF"/>
<path d="M99.357 57.7144L93.4285 45.7856H105.369L99.357 57.7144Z" fill="#DE7EFF"/>
<path d="M111.381 57.7144H99.357L105.369 45.7856L111.381 57.7144Z" fill="#DE7EFF"/>
<path d="M105.369 69.643L111.381 57.7144L117.309 69.643H105.369Z" fill="#DE7EFF"/>
<path d="M123.238 81.5715H111.381L117.31 69.6429L123.238 81.5715Z" fill="#DE7EFF"/>
<path d="M135.262 105.429H123.238L129.25 93.5L135.262 105.429Z" fill="#DE7EFF"/>
<path d="M129.25 117.357L135.262 105.429L141.19 117.357H129.25Z" fill="#DE7EFF"/>
<path d="M147.119 129.286H135.262L141.19 117.357L147.119 129.286Z" fill="#DE7EFF"/>
<path d="M63.619 81.5715L57.6905 93.5L51.762 81.5715H63.619Z" fill="#DE7EFF"/>
<path d="M39.738 129.286L33.8095 117.357H45.75L39.738 129.286Z" fill="#DE7EFF"/>
<path d="M33.8095 117.357L39.738 105.429L45.75 117.357H33.8095Z" fill="#DE7EFF"/>
<path d="M63.619 81.5715L57.6905 69.6429H69.631L63.619 81.5715Z" fill="#DE7EFF"/>
<path d="M57.6905 69.643L63.619 57.7144L69.631 69.643H57.6905Z" fill="#DE7EFF"/>
<path d="M111.381 57.7144L105.369 69.643L99.357 57.7144H111.381Z" fill="#DE7EFF"/>
<path d="M111.381 81.5715L105.369 69.6429H117.309L111.381 81.5715Z" fill="#DE7EFF"/>
<path d="M135.262 129.286L129.25 117.357H141.19L135.262 129.286Z" fill="#DE7EFF"/>
<path d="M135.262 105.429L129.25 117.357L123.238 105.429H135.262Z" fill="#DE7EFF"/>
<path d="M117.31 93.5L123.238 81.5715L129.25 93.5H117.31Z" fill="#DE7EFF"/>
<path d="M123.238 105.429L117.31 93.5H129.25L123.238 105.429Z" fill="#DE7EFF"/>
<path d="M123.238 81.5715L117.31 93.5L111.381 81.5715H123.238Z" fill="#DE7EFF"/>
<path d="M51.762 105.429L45.75 117.357L39.738 105.429H51.762Z" fill="#DE7EFF"/>
<path d="M51.762 105.429H39.738L45.75 93.5L51.762 105.429Z" fill="#DE7EFF"/>
<path d="M51.762 105.429L45.75 93.5H57.6905L51.762 105.429Z" fill="#DE7EFF"/>
<path d="M45.75 93.5L51.762 81.5715L57.6905 93.5H45.75Z" fill="#DE7EFF"/>
<path d="M75.643 57.7144L69.631 69.643L63.619 57.7144H75.643Z" fill="#DE7EFF"/>
<path d="M75.643 57.7144H63.619L69.631 45.7856L75.643 57.7144Z" fill="#DE7EFF"/>
<path d="M75.643 57.7144L69.631 45.7856H81.5715L75.643 57.7144Z" fill="#DE7EFF"/>
<path d="M69.631 45.7856L75.643 33.8571L81.5715 45.7856H69.631Z" fill="#DE7EFF"/>
<path d="M147.119 129.286L141.19 141.214L135.262 129.286H147.119Z" fill="#DE7EFF"/>
<path d="M141.19 141.214L147.119 129.286L153.131 141.214H141.19Z" fill="#DE7EFF"/>
<path d="M27.881 153.143H15.857L21.869 141.214L27.881 153.143Z" fill="#DE7EFF"/>
<path d="M159.143 153.143L153.131 165.071L147.119 153.143H159.143Z" fill="#DE7EFF"/>
<path d="M159.143 153.143H147.119L153.131 141.214L159.143 153.143Z" fill="#DE7EFF"/>
<path d="M147.119 153.143L141.19 141.214H153.131L147.119 153.143Z" fill="#DE7EFF"/>
<path d="M147.119 153.143H135.262L141.19 141.214L147.119 153.143Z" fill="#DE7EFF"/>
<path d="M135.262 153.143L129.25 141.214H141.19L135.262 153.143Z" fill="#DE7EFF"/>
<path d="M141.19 165.071L147.119 153.143L153.131 165.071H141.19Z" fill="#DE7EFF"/>
<path d="M147.119 153.143L141.19 165.071L135.262 153.143H147.119Z" fill="#DE7EFF"/>
<path d="M129.25 165.071L135.262 153.143L141.19 165.071H129.25Z" fill="#DE7EFF"/>
<path d="M135.262 153.143L129.25 165.071L123.238 153.143H135.262Z" fill="#DE7EFF"/>
<path d="M105.369 165.071L111.381 153.143L117.309 165.071H105.369Z" fill="#DE7EFF"/>
<path d="M123.238 153.143L117.31 165.071L111.381 153.143H123.238Z" fill="#DE7EFF"/>
<path d="M117.31 165.071L123.238 153.143L129.25 165.071H117.31Z" fill="#DE7EFF"/>
<path d="M129.25 141.214L135.262 129.286L141.19 141.214H129.25Z" fill="#DE7EFF"/>
<path d="M135.262 129.286L129.25 141.214L123.238 129.286H135.262Z" fill="#DE7EFF"/>
<path d="M135.262 129.286H123.238L129.25 117.357L135.262 129.286Z" fill="#DE7EFF"/>
<path d="M123.238 129.286L117.31 117.357H129.25L123.238 129.286Z" fill="#DE7EFF"/>
<path d="M117.31 117.357L123.238 105.429L129.25 117.357H117.31Z" fill="#DE7EFF"/>
<path d="M123.238 105.429L117.31 117.357L111.381 105.429H123.238Z" fill="#DE7EFF"/>
<path d="M123.238 105.429H111.381L117.31 93.5L123.238 105.429Z" fill="#DE7EFF"/>
<path d="M111.381 105.429L105.369 93.5H117.309L111.381 105.429Z" fill="#DE7EFF"/>
<path d="M105.369 93.5L111.381 81.5715L117.309 93.5H105.369Z" fill="#DE7EFF"/>
<path d="M111.381 81.5715L105.369 93.5L99.357 81.5715H111.381Z" fill="#DE7EFF"/>
<path d="M111.381 81.5715H99.357L105.369 69.6429L111.381 81.5715Z" fill="#DE7EFF"/>
<path d="M99.357 81.5715L93.4285 69.6429H105.369L99.357 81.5715Z" fill="#DE7EFF"/>
<path d="M93.4285 69.643L99.357 57.7144L105.369 69.643H93.4285Z" fill="#DE7EFF"/>
<path d="M99.357 57.7144H87.5L93.4285 45.7856L99.357 57.7144Z" fill="#DE7EFF"/>
<path d="M99.357 57.7144L93.4285 69.643L87.5 57.7144H99.357Z" fill="#DE7EFF"/>
<path d="M87.5 57.7144L81.5715 45.7856H93.4285L87.5 57.7144Z" fill="#DE7EFF"/>
<path d="M81.5715 45.7856L87.5 33.8571L93.4285 45.7856H81.5715Z" fill="#DE7EFF"/>
<path d="M87.5 57.7144H75.643L81.5715 45.7856L87.5 57.7144Z" fill="#DE7EFF"/>
<path d="M69.631 69.643L75.643 57.7144L81.5715 69.643H69.631Z" fill="#DE7EFF"/>
<path d="M75.643 81.5715L69.631 69.6429H81.5715L75.643 81.5715Z" fill="#DE7EFF"/>
<path d="M87.5 57.7144L81.5715 69.643L75.643 57.7144H87.5Z" fill="#DE7EFF"/>
<path d="M75.643 81.5715H63.619L69.631 69.6429L75.643 81.5715Z" fill="#DE7EFF"/>
<path d="M75.643 81.5715L69.631 93.5L63.619 81.5715H75.643Z" fill="#DE7EFF"/>
<path d="M57.6905 93.5L63.619 81.5715L69.631 93.5H57.6905Z" fill="#DE7EFF"/>
<path d="M63.619 105.429L57.6905 93.5H69.631L63.619 105.429Z" fill="#DE7EFF"/>
<path d="M63.619 105.429H51.762L57.6905 93.5L63.619 105.429Z" fill="#DE7EFF"/>
<path d="M63.619 105.429L57.6905 117.357L51.762 105.429H63.619Z" fill="#DE7EFF"/>
<path d="M45.75 117.357L51.762 105.429L57.6905 117.357H45.75Z" fill="#DE7EFF"/>
<path d="M51.762 129.286L45.75 117.357H57.6905L51.762 129.286Z" fill="#DE7EFF"/>
<path d="M51.762 129.286H39.738L45.75 117.357L51.762 129.286Z" fill="#DE7EFF"/>
<path d="M51.762 129.286L45.75 141.214L39.738 129.286H51.762Z" fill="#DE7EFF"/>
<path d="M33.8095 141.214L39.738 129.286L45.75 141.214H33.8095Z" fill="#DE7EFF"/>
<path d="M39.738 153.143L33.8095 141.214H45.75L39.738 153.143Z" fill="#DE7EFF"/>
<path d="M39.738 153.143H27.881L33.8095 141.214L39.738 153.143Z" fill="#DE7EFF"/>
<path d="M39.738 153.143L33.8095 165.071L27.881 153.143H39.738Z" fill="#DE7EFF"/>
<path d="M33.8095 165.071L39.738 153.143L45.75 165.071H33.8095Z" fill="#DE7EFF"/>
<path d="M51.762 153.143L45.75 165.071L39.738 153.143H51.762Z" fill="#DE7EFF"/>
<path d="M45.75 165.071L51.762 153.143L57.6905 165.071H45.75Z" fill="#DE7EFF"/>
<path d="M63.619 153.143L57.6905 165.071L51.762 153.143H63.619Z" fill="#DE7EFF"/>
<path d="M57.6905 165.071L63.619 153.143L69.631 165.071H57.6905Z" fill="#DE7EFF"/>
<path d="M75.643 153.143L69.631 165.071L63.619 153.143H75.643Z" fill="#DE7EFF"/>
<path d="M69.631 165.071L75.643 153.143L81.5715 165.071H69.631Z" fill="#DE7EFF"/>
<path d="M87.5 153.143L81.5715 165.071L75.643 153.143H87.5Z" fill="#DE7EFF"/>
<path d="M81.5715 165.071L87.5 153.143L93.4285 165.071H81.5715Z" fill="#DE7EFF"/>
<path d="M99.357 153.143L93.4285 165.071L87.5 153.143H99.357Z" fill="#DE7EFF"/>
<path d="M93.4285 165.071L99.357 153.143L105.369 165.071H93.4285Z" fill="#DE7EFF"/>
<path d="M111.381 153.143L105.369 165.071L99.357 153.143H111.381Z" fill="#DE7EFF"/>
<path d="M63.619 81.5715H51.762L57.6905 69.6429L63.619 81.5715Z" fill="#DE7EFF"/>
<path d="M21.869 165.071L27.881 153.143L33.8095 165.071H21.869Z" fill="#DE7EFF"/>
<path d="M27.881 153.143L21.869 165.071L15.857 153.143H27.881Z" fill="#DE7EFF"/>
<path d="M9.9285 165.071L15.857 153.143L21.869 165.071H9.9285Z" fill="#DE7EFF"/>
<path d="M81.5715 21.9286L87.5 10L93.4285 21.9286H81.5715Z" fill="#DE7EFF"/>
<path d="M87.5 33.8572L81.5715 21.9286H93.4285L87.5 33.8572Z" fill="#DE7EFF"/>
<path d="M87.5 33.8572H75.643L81.5715 21.9286L87.5 33.8572Z" fill="#DE7EFF"/>
<path d="M99.357 33.8572H87.5L93.4285 21.9286L99.357 33.8572Z" fill="#DE7EFF"/>
</g>
<path d="M30.8855 168.591L23.9154 157.343L37.0981 157.83L30.8855 168.591Z" fill="#DE7EFF"/>
<path d="M135 154.83L151.191 154.403L142.672 168.118L135 154.83Z" fill="#DE7EFF"/>
<g filter="url(#filter0_b_10_449)">
<path d="M127.021 35.7245C140.073 41.8911 153.641 45.1316 170.294 47.8942C167.519 98.5259 161.008 134.077 148.061 163.451C135.262 192.492 116.015 215.849 87.0919 241.859C56.3582 211.938 36.4746 186.358 23.8874 157.054C11.2574 127.651 5.81385 94.1284 4.59517 48.0746C22.9213 45.7684 37.3974 42.5363 50.4903 36.1582C63.4931 29.8241 74.8335 20.5365 87.221 6.56981C101.618 20.5414 113.938 29.5428 127.021 35.7245Z" stroke="url(#paint0_linear_10_449)" stroke-width="9"/>
</g>
<defs>
<filter id="filter0_b_10_449" x="-4" y="-4" width="183" height="256" filterUnits="userSpaceOnUse" color-interpolation-filters="sRGB">
<feFlood flood-opacity="0" result="BackgroundImageFix"/>
<feGaussianBlur in="BackgroundImageFix" stdDeviation="2"/>
<feComposite in2="SourceAlpha" operator="in" result="effect1_backgroundBlur_10_449"/>
<feBlend mode="normal" in="SourceGraphic" in2="effect1_backgroundBlur_10_449" result="shape"/>
</filter>
<linearGradient id="paint0_linear_10_449" x1="87.5" y1="0" x2="87.5" y2="248" gradientUnits="userSpaceOnUse">
<stop stop-color="#DE7EFF"/>
</linearGradient>
<clipPath id="clip0_10_449">
<rect width="133" height="149" fill="white" transform="translate(20 10)"/>
</clipPath>
</defs>
</svg>
