<svg width="90" height="36" viewBox="0 0 90 36" fill="none" xmlns="http://www.w3.org/2000/svg">
<path d="M0.632 27.368V23.048L17.192 1.4H23.864L7.544 23.048L4.424 22.088H31.064V27.368H0.632ZM19.064 35V27.368L19.256 22.088V15.32H25.112V35H19.064Z" fill="white" fill-opacity="0.6"/>
<path d="M47.7061 35.48C45.0501 35.48 42.6501 34.808 40.5061 33.464C38.3941 32.12 36.7301 30.168 35.5141 27.608C34.2981 25.016 33.6901 21.88 33.6901 18.2C33.6901 14.52 34.2981 11.4 35.5141 8.84C36.7301 6.248 38.3941 4.28 40.5061 2.936C42.6501 1.592 45.0501 0.919998 47.7061 0.919998C50.3941 0.919998 52.7941 1.592 54.9061 2.936C57.0181 4.28 58.6821 6.248 59.8981 8.84C61.1461 11.4 61.7701 14.52 61.7701 18.2C61.7701 21.88 61.1461 25.016 59.8981 27.608C58.6821 30.168 57.0181 32.12 54.9061 33.464C52.7941 34.808 50.3941 35.48 47.7061 35.48ZM47.7061 30.056C49.2741 30.056 50.6341 29.64 51.7861 28.808C52.9381 27.944 53.8341 26.632 54.4741 24.872C55.1461 23.112 55.4821 20.888 55.4821 18.2C55.4821 15.48 55.1461 13.256 54.4741 11.528C53.8341 9.768 52.9381 8.472 51.7861 7.64C50.6341 6.776 49.2741 6.344 47.7061 6.344C46.2021 6.344 44.8581 6.776 43.6741 7.64C42.5221 8.472 41.6101 9.768 40.9381 11.528C40.2981 13.256 39.9781 15.48 39.9781 18.2C39.9781 20.888 40.2981 23.112 40.9381 24.872C41.6101 26.632 42.5221 27.944 43.6741 28.808C44.8581 29.64 46.2021 30.056 47.7061 30.056Z" fill="white" fill-opacity="0.4"/>
<path d="M76.547 35.48C74.179 35.48 71.859 35.144 69.587 34.472C67.347 33.768 65.459 32.808 63.923 31.592L66.611 26.744C67.827 27.736 69.299 28.536 71.027 29.144C72.755 29.752 74.563 30.056 76.451 30.056C78.691 30.056 80.435 29.608 81.683 28.712C82.931 27.784 83.555 26.536 83.555 24.968C83.555 23.432 82.979 22.216 81.827 21.32C80.675 20.424 78.819 19.976 76.259 19.976H73.187V15.704L82.787 4.28L83.603 6.632H65.555V1.4H88.451V5.576L78.851 17L75.587 15.08H77.459C81.587 15.08 84.675 16.008 86.723 17.864C88.803 19.688 89.843 22.04 89.843 24.92C89.843 26.808 89.363 28.552 88.403 30.152C87.443 31.752 85.971 33.048 83.987 34.04C82.035 35 79.555 35.48 76.547 35.48Z" fill="white" fill-opacity="0.2"/>
</svg>
