<svg width="96" height="36" viewBox="0 0 96 36" fill="none" xmlns="http://www.w3.org/2000/svg">
<path d="M0.632 27.368V23.048L17.192 1.4H23.864L7.544 23.048L4.424 22.088H31.064V27.368H0.632ZM19.064 35V27.368L19.256 22.088V15.32H25.112V35H19.064Z" fill="white" fill-opacity="0.6"/>
<path d="M47.7061 35.48C45.0501 35.48 42.6501 34.808 40.5061 33.464C38.3941 32.12 36.7301 30.168 35.5141 27.608C34.2981 25.016 33.6901 21.88 33.6901 18.2C33.6901 14.52 34.2981 11.4 35.5141 8.84C36.7301 6.248 38.3941 4.28 40.5061 2.936C42.6501 1.592 45.0501 0.919998 47.7061 0.919998C50.3941 0.919998 52.7941 1.592 54.9061 2.936C57.0181 4.28 58.6821 6.248 59.8981 8.84C61.1461 11.4 61.7701 14.52 61.7701 18.2C61.7701 21.88 61.1461 25.016 59.8981 27.608C58.6821 30.168 57.0181 32.12 54.9061 33.464C52.7941 34.808 50.3941 35.48 47.7061 35.48ZM47.7061 30.056C49.2741 30.056 50.6341 29.64 51.7861 28.808C52.9381 27.944 53.8341 26.632 54.4741 24.872C55.1461 23.112 55.4821 20.888 55.4821 18.2C55.4821 15.48 55.1461 13.256 54.4741 11.528C53.8341 9.768 52.9381 8.472 51.7861 7.64C50.6341 6.776 49.2741 6.344 47.7061 6.344C46.2021 6.344 44.8581 6.776 43.6741 7.64C42.5221 8.472 41.6101 9.768 40.9381 11.528C40.2981 13.256 39.9781 15.48 39.9781 18.2C39.9781 20.888 40.2981 23.112 40.9381 24.872C41.6101 26.632 42.5221 27.944 43.6741 28.808C44.8581 29.64 46.2021 30.056 47.7061 30.056Z" fill="white" fill-opacity="0.4"/>
<path d="M65.507 27.368V23.048L82.067 1.4H88.739L72.419 23.048L69.299 22.088H95.939V27.368H65.507ZM83.939 35V27.368L84.131 22.088V15.32H89.987V35H83.939Z" fill="white" fill-opacity="0.2"/>
</svg>
