<svg width="88" height="36" viewBox="0 0 88 36" fill="none" xmlns="http://www.w3.org/2000/svg">
<path d="M0.632 27.368V23.048L17.192 1.4H23.864L7.544 23.048L4.424 22.088H31.064V27.368H0.632ZM19.064 35V27.368L19.256 22.088V15.32H25.112V35H19.064Z" fill="white" fill-opacity="0.6"/>
<path d="M33.2581 35V30.824L46.6021 18.152C47.7221 17.096 48.5541 16.168 49.0981 15.368C49.6421 14.568 49.9941 13.832 50.1541 13.16C50.3461 12.456 50.4421 11.8 50.4421 11.192C50.4421 9.656 49.9141 8.472 48.8581 7.64C47.8021 6.776 46.2501 6.344 44.2021 6.344C42.5701 6.344 41.0821 6.632 39.7381 7.208C38.4261 7.784 37.2901 8.664 36.3301 9.848L31.9621 6.488C33.2741 4.728 35.0341 3.368 37.2421 2.408C39.4821 1.416 41.9781 0.919998 44.7301 0.919998C47.1621 0.919998 49.2741 1.32 51.0661 2.12C52.8901 2.888 54.2821 3.992 55.2421 5.432C56.2341 6.872 56.7301 8.584 56.7301 10.568C56.7301 11.656 56.5861 12.744 56.2981 13.832C56.0101 14.888 55.4661 16.008 54.6661 17.192C53.8661 18.376 52.6981 19.704 51.1621 21.176L39.6901 32.072L38.3941 29.72H58.0261V35H33.2581Z" fill="white" fill-opacity="0.4"/>
<path d="M72.9556 0.919998C76.0276 0.919998 78.6356 1.576 80.7796 2.888C82.9556 4.168 84.6196 6.04 85.7716 8.504C86.9236 10.968 87.4996 14.008 87.4996 17.624C87.4996 21.464 86.7956 24.712 85.3876 27.368C84.0116 30.024 82.0916 32.04 79.6276 33.416C77.1636 34.792 74.2996 35.48 71.0356 35.48C69.3396 35.48 67.7236 35.304 66.1876 34.952C64.6516 34.6 63.3236 34.056 62.2036 33.32L64.5076 28.616C65.4356 29.224 66.4436 29.656 67.5316 29.912C68.6196 30.136 69.7396 30.248 70.8916 30.248C74.0596 30.248 76.5716 29.272 78.4276 27.32C80.2836 25.368 81.2116 22.488 81.2116 18.68C81.2116 18.072 81.1956 17.368 81.1636 16.568C81.1316 15.736 81.0196 14.904 80.8276 14.072L82.7476 16.184C82.2036 17.496 81.4196 18.6 80.3956 19.496C79.3716 20.36 78.1716 21.016 76.7956 21.464C75.4196 21.912 73.8996 22.136 72.2356 22.136C70.0596 22.136 68.0916 21.72 66.3316 20.888C64.6036 20.024 63.2276 18.824 62.2036 17.288C61.1796 15.72 60.6676 13.896 60.6676 11.816C60.6676 9.576 61.2116 7.656 62.2996 6.056C63.3876 4.424 64.8596 3.16 66.7156 2.264C68.6036 1.368 70.6836 0.919998 72.9556 0.919998ZM73.2916 5.816C72.0116 5.816 70.8756 6.056 69.8836 6.536C68.8916 6.984 68.1076 7.64 67.5316 8.504C66.9876 9.336 66.7156 10.344 66.7156 11.528C66.7156 13.288 67.3236 14.68 68.5396 15.704C69.7556 16.728 71.3876 17.24 73.4356 17.24C74.7796 17.24 75.9636 17 76.9876 16.52C78.0116 16.008 78.8116 15.32 79.3876 14.456C79.9636 13.56 80.2516 12.568 80.2516 11.48C80.2516 10.424 79.9796 9.48 79.4356 8.648C78.8916 7.784 78.1076 7.096 77.0836 6.584C76.0596 6.072 74.7956 5.816 73.2916 5.816Z" fill="white" fill-opacity="0.2"/>
</svg>
