<svg width="87" height="36" viewBox="0 0 87 36" fill="none" xmlns="http://www.w3.org/2000/svg">
<path d="M13.248 35.48C10.88 35.48 8.56 35.144 6.288 34.472C4.048 33.768 2.16 32.808 0.624 31.592L3.264 26.744C4.48 27.736 5.952 28.536 7.68 29.144C9.44 29.752 11.264 30.056 13.152 30.056C15.36 30.056 17.088 29.592 18.336 28.664C19.616 27.736 20.256 26.488 20.256 24.92C20.256 23.864 19.984 22.936 19.44 22.136C18.928 21.336 18 20.728 16.656 20.312C15.344 19.896 13.536 19.688 11.232 19.688H3.12L4.848 1.4H24.576V6.632H7.152L10.416 3.656L9.12 17.336L5.856 14.408H12.624C15.952 14.408 18.624 14.856 20.64 15.752C22.688 16.616 24.176 17.832 25.104 19.4C26.064 20.936 26.544 22.696 26.544 24.68C26.544 26.632 26.064 28.424 25.104 30.056C24.144 31.688 22.672 33 20.688 33.992C18.736 34.984 16.256 35.48 13.248 35.48Z" fill="white" fill-opacity="0.6"/>
<path d="M44.1593 35.48C41.5033 35.48 39.1033 34.808 36.9593 33.464C34.8473 32.12 33.1833 30.168 31.9673 27.608C30.7513 25.016 30.1433 21.88 30.1433 18.2C30.1433 14.52 30.7513 11.4 31.9673 8.84C33.1833 6.248 34.8473 4.28 36.9593 2.936C39.1033 1.592 41.5033 0.919998 44.1593 0.919998C46.8473 0.919998 49.2473 1.592 51.3593 2.936C53.4713 4.28 55.1353 6.248 56.3513 8.84C57.5993 11.4 58.2233 14.52 58.2233 18.2C58.2233 21.88 57.5993 25.016 56.3513 27.608C55.1353 30.168 53.4713 32.12 51.3593 33.464C49.2473 34.808 46.8473 35.48 44.1593 35.48ZM44.1593 30.056C45.7273 30.056 47.0873 29.64 48.2393 28.808C49.3913 27.944 50.2873 26.632 50.9273 24.872C51.5993 23.112 51.9353 20.888 51.9353 18.2C51.9353 15.48 51.5993 13.256 50.9273 11.528C50.2873 9.768 49.3913 8.472 48.2393 7.64C47.0873 6.776 45.7273 6.344 44.1593 6.344C42.6553 6.344 41.3113 6.776 40.1273 7.64C38.9753 8.472 38.0633 9.768 37.3913 11.528C36.7513 13.256 36.4313 15.48 36.4313 18.2C36.4313 20.888 36.7513 23.112 37.3913 24.872C38.0633 26.632 38.9753 27.944 40.1273 28.808C41.3113 29.64 42.6553 30.056 44.1593 30.056Z" fill="white" fill-opacity="0.4"/>
<path d="M62.0081 35V30.824L75.3521 18.152C76.4721 17.096 77.3041 16.168 77.8481 15.368C78.3921 14.568 78.7441 13.832 78.9041 13.16C79.0961 12.456 79.1921 11.8 79.1921 11.192C79.1921 9.656 78.6641 8.472 77.6081 7.64C76.5521 6.776 75.0001 6.344 72.9521 6.344C71.3201 6.344 69.8321 6.632 68.4881 7.208C67.1761 7.784 66.0401 8.664 65.0801 9.848L60.7121 6.488C62.0241 4.728 63.7841 3.368 65.9921 2.408C68.2321 1.416 70.7281 0.919998 73.4801 0.919998C75.9121 0.919998 78.0241 1.32 79.8161 2.12C81.6401 2.888 83.0321 3.992 83.9921 5.432C84.9841 6.872 85.4801 8.584 85.4801 10.568C85.4801 11.656 85.3361 12.744 85.0481 13.832C84.7601 14.888 84.2161 16.008 83.4161 17.192C82.6161 18.376 81.4481 19.704 79.9121 21.176L68.4401 32.072L67.1441 29.72H86.7761V35H62.0081Z" fill="white" fill-opacity="0.2"/>
</svg>
